<svg xmlns="http://www.w3.org/2000/svg" viewBox="0 0 880 862" role="img" aria-label="Just-in-time dynamic database credentials">
<defs><style type="text/css"><![CDATA[@import url('https://fonts.googleapis.com/css2?family=IBM+Plex+Sans:wght@400;600;700&family=IBM+Plex+Mono:wght@400;500&display=swap');]]></style><marker id="arrow" viewBox="0 0 10 10" refX="9" refY="5" markerWidth="8" markerHeight="8" orient="auto-start-reverse"><path d="M0,0 L10,5 L0,10 z" fill="#161616"/></marker><marker id="arrowblue" viewBox="0 0 10 10" refX="9" refY="5" markerWidth="8" markerHeight="8" orient="auto-start-reverse"><path d="M0,0 L10,5 L0,10 z" fill="#0043ce"/></marker><marker id="arrowred" viewBox="0 0 10 10" refX="9" refY="5" markerWidth="8" markerHeight="8" orient="auto-start-reverse"><path d="M0,0 L10,5 L0,10 z" fill="#da1e28"/></marker></defs>
<rect x="0" y="0" width="880" height="862" fill="#ffffff"/>
<rect x="0" y="0" width="6" height="862" fill="#0f62fe"/>
<text x="48" y="56" font-family="IBM Plex Sans" font-size="26" font-weight="700" fill="#161616">Just-in-time dynamic database credentials</text>
<text x="48" y="86" font-family="IBM Plex Sans" font-size="15" fill="#525252">Kubernetes auth -&gt; Vault database secrets engine -&gt; ephemeral Postgres user -&gt; revoke</text>
<line x1="48" y1="104" x2="128" y2="104" stroke="#0f62fe" stroke-width="3"/>
<line x1="190" y1="196" x2="190" y2="798" stroke="#a8a8a8" stroke-width="1.5" stroke-dasharray="2 5"/>
<rect x="96.0" y="132" width="188" height="64" rx="4" fill="#ffffff" stroke="#0f62fe" stroke-width="1.6"/>
<rect x="96.0" y="132" width="188" height="5" rx="2" fill="#0f62fe"/>
<text x="190" y="162" text-anchor="middle" font-family="IBM Plex Sans" font-size="14.5" font-weight="700" fill="#161616">relationship-assistant</text>
<text x="190" y="182" text-anchor="middle" font-family="IBM Plex Mono" font-size="10.5" fill="#525252">agent workload</text>
<line x1="440" y1="196" x2="440" y2="798" stroke="#a8a8a8" stroke-width="1.5" stroke-dasharray="2 5"/>
<rect x="346.0" y="132" width="188" height="64" rx="4" fill="#ffffff" stroke="#8a3ffc" stroke-width="1.6"/>
<rect x="346.0" y="132" width="188" height="5" rx="2" fill="#8a3ffc"/>
<text x="440" y="162" text-anchor="middle" font-family="IBM Plex Sans" font-size="14.5" font-weight="700" fill="#161616">Vault</text>
<text x="440" y="182" text-anchor="middle" font-family="IBM Plex Mono" font-size="10.5" fill="#525252">database secrets engine</text>
<line x1="690" y1="196" x2="690" y2="798" stroke="#a8a8a8" stroke-width="1.5" stroke-dasharray="2 5"/>
<rect x="596.0" y="132" width="188" height="64" rx="4" fill="#ffffff" stroke="#1192e8" stroke-width="1.6"/>
<rect x="596.0" y="132" width="188" height="5" rx="2" fill="#1192e8"/>
<text x="690" y="162" text-anchor="middle" font-family="IBM Plex Sans" font-size="14.5" font-weight="700" fill="#161616">PostgreSQL</text>
<text x="690" y="182" text-anchor="middle" font-family="IBM Plex Mono" font-size="10.5" fill="#525252">hashibank</text>
<rect x="435.5" y="236.0" width="9" height="58.0" rx="1.5" fill="#edf5ff" stroke="#a6c8ff" stroke-width="1"/>
<rect x="185.5" y="288.0" width="9" height="58.0" rx="1.5" fill="#edf5ff" stroke="#a6c8ff" stroke-width="1"/>
<rect x="435.5" y="340.0" width="9" height="58.0" rx="1.5" fill="#edf5ff" stroke="#a6c8ff" stroke-width="1"/>
<rect x="685.5" y="392.0" width="9" height="58.0" rx="1.5" fill="#edf5ff" stroke="#a6c8ff" stroke-width="1"/>
<rect x="185.5" y="444.0" width="9" height="58.0" rx="1.5" fill="#edf5ff" stroke="#a6c8ff" stroke-width="1"/>
<rect x="685.5" y="496.0" width="9" height="58.0" rx="1.5" fill="#edf5ff" stroke="#a6c8ff" stroke-width="1"/>
<rect x="185.5" y="548.0" width="9" height="58.0" rx="1.5" fill="#edf5ff" stroke="#a6c8ff" stroke-width="1"/>
<rect x="685.5" y="600.0" width="9" height="58.0" rx="1.5" fill="#edf5ff" stroke="#a6c8ff" stroke-width="1"/>
<rect x="685.5" y="652.0" width="9" height="58.0" rx="1.5" fill="#edf5ff" stroke="#a6c8ff" stroke-width="1"/>
<rect x="185.5" y="704.0" width="9" height="42.4" rx="1.5" fill="#edf5ff" stroke="#a6c8ff" stroke-width="1"/>
<line x1="194.5" y1="242" x2="435.5" y2="242" stroke="#161616" stroke-width="1.7" marker-end="url(#arrow)"/>
<text x="315.0" y="233.0" text-anchor="middle" font-family="IBM Plex Sans" font-size="12.5" font-weight="600" fill="#161616">POST auth/kubernetes/login</text>
<text x="315.0" y="257.0" text-anchor="middle" font-family="IBM Plex Mono" font-size="10" fill="#525252">projected SA token</text>
<g><circle cx="178.5" cy="242.0" r="9" fill="#0f62fe"/><text x="178.5" y="245.5" text-anchor="middle" font-family="IBM Plex Mono" font-size="10.5" font-weight="500" fill="#ffffff">1</text></g>
<line x1="435.5" y1="294" x2="194.5" y2="294" stroke="#525252" stroke-width="1.7" stroke-dasharray="6 4" marker-end="url(#arrow)"/>
<text x="315.0" y="285.0" text-anchor="middle" font-family="IBM Plex Sans" font-size="12.5" font-weight="400" fill="#525252">Vault client token</text>
<text x="315.0" y="309.0" text-anchor="middle" font-family="IBM Plex Mono" font-size="10" fill="#525252">identity-assistant-k8s-jit</text>
<g><circle cx="441.5" cy="294.0" r="9" fill="#0f62fe"/><text x="441.5" y="297.5" text-anchor="middle" font-family="IBM Plex Mono" font-size="10.5" font-weight="500" fill="#ffffff">2</text></g>
<line x1="194.5" y1="346" x2="435.5" y2="346" stroke="#161616" stroke-width="1.7" marker-end="url(#arrow)"/>
<text x="315.0" y="337.0" text-anchor="middle" font-family="IBM Plex Sans" font-size="12.5" font-weight="600" fill="#161616">read database/creds/assistant-insights-readonly</text>
<g><circle cx="178.5" cy="346.0" r="9" fill="#0f62fe"/><text x="178.5" y="349.5" text-anchor="middle" font-family="IBM Plex Mono" font-size="10.5" font-weight="500" fill="#ffffff">3</text></g>
<line x1="444.5" y1="398" x2="685.5" y2="398" stroke="#0043ce" stroke-width="1.7" marker-end="url(#arrowblue)"/>
<text x="565.0" y="389.0" text-anchor="middle" font-family="IBM Plex Sans" font-size="12.5" font-weight="600" fill="#161616">CREATE ROLE (short-lived user)</text>
<text x="565.0" y="413.0" text-anchor="middle" font-family="IBM Plex Mono" font-size="10" fill="#525252">VALID UNTIL now + 5m</text>
<g><circle cx="428.5" cy="398.0" r="9" fill="#0f62fe"/><text x="428.5" y="401.5" text-anchor="middle" font-family="IBM Plex Mono" font-size="10.5" font-weight="500" fill="#ffffff">4</text></g>
<line x1="435.5" y1="450" x2="194.5" y2="450" stroke="#525252" stroke-width="1.7" stroke-dasharray="6 4" marker-end="url(#arrow)"/>
<text x="315.0" y="441.0" text-anchor="middle" font-family="IBM Plex Sans" font-size="12.5" font-weight="400" fill="#525252">username + password + 5m lease</text>
<g><circle cx="441.5" cy="450.0" r="9" fill="#0f62fe"/><text x="441.5" y="453.5" text-anchor="middle" font-family="IBM Plex Mono" font-size="10.5" font-weight="500" fill="#ffffff">5</text></g>
<line x1="194.5" y1="502" x2="685.5" y2="502" stroke="#161616" stroke-width="1.7" marker-end="url(#arrow)"/>
<text x="440.0" y="493.0" text-anchor="middle" font-family="IBM Plex Sans" font-size="12.5" font-weight="600" fill="#161616">connect + SELECT customer_relationships</text>
<text x="440.0" y="517.0" text-anchor="middle" font-family="IBM Plex Mono" font-size="10" fill="#525252">as ephemeral user</text>
<g><circle cx="178.5" cy="502.0" r="9" fill="#0f62fe"/><text x="178.5" y="505.5" text-anchor="middle" font-family="IBM Plex Mono" font-size="10.5" font-weight="500" fill="#ffffff">6</text></g>
<line x1="685.5" y1="554" x2="194.5" y2="554" stroke="#525252" stroke-width="1.7" stroke-dasharray="6 4" marker-end="url(#arrow)"/>
<text x="440.0" y="545.0" text-anchor="middle" font-family="IBM Plex Sans" font-size="12.5" font-weight="400" fill="#525252">relationship insight rows</text>
<g><circle cx="691.5" cy="554.0" r="9" fill="#0f62fe"/><text x="691.5" y="557.5" text-anchor="middle" font-family="IBM Plex Mono" font-size="10.5" font-weight="500" fill="#ffffff">7</text></g>
<line x1="444.5" y1="606" x2="685.5" y2="606" stroke="#da1e28" stroke-width="1.7" marker-end="url(#arrowred)"/>
<text x="565.0" y="597.0" text-anchor="middle" font-family="IBM Plex Sans" font-size="12.5" font-weight="600" fill="#161616">lease revoke -&gt; DROP ROLE</text>
<g><circle cx="428.5" cy="606.0" r="9" fill="#0f62fe"/><text x="428.5" y="609.5" text-anchor="middle" font-family="IBM Plex Mono" font-size="10.5" font-weight="500" fill="#ffffff">8</text></g>
<line x1="194.5" y1="658" x2="685.5" y2="658" stroke="#161616" stroke-width="1.7" marker-end="url(#arrow)"/>
<text x="440.0" y="649.0" text-anchor="middle" font-family="IBM Plex Sans" font-size="12.5" font-weight="600" fill="#161616">reconnect with leaked credential</text>
<text x="440.0" y="673.0" text-anchor="middle" font-family="IBM Plex Mono" font-size="10" fill="#525252">after revocation</text>
<g><circle cx="178.5" cy="658.0" r="9" fill="#0f62fe"/><text x="178.5" y="661.5" text-anchor="middle" font-family="IBM Plex Mono" font-size="10.5" font-weight="500" fill="#ffffff">9</text></g>
<line x1="685.5" y1="710" x2="194.5" y2="710" stroke="#da1e28" stroke-width="1.7" stroke-dasharray="6 4" marker-end="url(#arrowred)"/>
<text x="440.0" y="701.0" text-anchor="middle" font-family="IBM Plex Sans" font-size="12.5" font-weight="400" fill="#525252">authentication failed (revoked)</text>
<g><circle cx="691.5" cy="710.0" r="9" fill="#0f62fe"/><text x="691.5" y="713.5" text-anchor="middle" font-family="IBM Plex Mono" font-size="10.5" font-weight="500" fill="#ffffff">10</text></g>
<text x="48" y="836" font-family="IBM Plex Mono" font-size="11" fill="#525252">Session 2 - just-in-time credentials for dynamic workload identity</text>
</svg>