<svg xmlns="http://www.w3.org/2000/svg" xmlns:xlink="http://www.w3.org/1999/xlink" xmlns:lucid="lucid" width="1023" height="585"><g transform="translate(-1126 -1734)" lucid:page-tab-id="0_0"><path d="M-1000-500h3500v3000h-3500z" fill="#fff"/><path d="M1207.36 1823.8a6 6 0 0 1 6-6h856.1a6 6 0 0 1 6 6v163.97a6 6 0 0 1-6 6h-856.1a6 6 0 0 1-6-6z" stroke="#00c2a8" stroke-width="3" fill-opacity="0"/><path d="M1210.23 2050.3a6 6 0 0 1 6-6h850.36a6 6 0 0 1 6 6v195.46a6 6 0 0 1-6 6h-850.37a6 6 0 0 1-6-6z" stroke="#fc9432" stroke-width="2" fill-opacity="0"/><path d="M1734.55 2175.76a6 6 0 0 1 6-6h209.7a6 6 0 0 1 6 6v50.48a6 6 0 0 1-6 6h-209.7a6 6 0 0 1-6-6zM1734.55 2076.4a6 6 0 0 1 6-6h209.7a6 6 0 0 1 6 6v50.47a6 6 0 0 1-6 6h-209.7a6 6 0 0 1-6-6z" stroke="#fcce14" stroke-width="3" fill-opacity="0"/><path d="M1226.17 1887.3a6 6 0 0 1 6-6h177.16a6 6 0 0 1 6 6v36.97a6 6 0 0 1-6 6h-177.16a6 6 0 0 1-6-6zM1470.42 1930.23a6 6 0 0 1 6-6h177.15a6 6 0 0 1 6 6v36.97a6 6 0 0 1-6 6h-177.15a6 6 0 0 1-6-6zM1713.8 1853.52a6 6 0 0 1 6-6h298.55a6 6 0 0 1 6 6v36.96a6 6 0 0 1-6 6H1719.8a6 6 0 0 1-6-6zM1713.8 1930.23a6 6 0 0 1 6-6h218.98a6 6 0 0 1 6 6v36.97a6 6 0 0 1-6 6h-219a6 6 0 0 1-6-6z" stroke="#00c2a8" fill-opacity="0"/><path d="M1303.82 2122.8a6 6 0 0 1 6-6h209.7a6 6 0 0 1 6 6v50.47a6 6 0 0 1-6 6h-209.7a6 6 0 0 1-6-6z" stroke="#fcce14" stroke-width="3" fill-opacity="0"/><path d="M1534.52 2066.9l81.56 151.55 82.22-151.55h-163.78zm68.95 60.16h-12.94v-12.27h12.94v12.26zm0-18.5h-12.94v-12.26h12.94v12.27zm19.33 37h-12.78v-12.28h12.78v12.27zm0-18.5h-12.78v-12.27h12.78v12.26zm0-18.5h-12.78v-12.26h12.78v12.27zm19.5 18.5h-12.95v-12.27h12.94v12.26zm-12.95-18.5v-12.26h12.94v12.27h-12.95z" stroke="#000" stroke-opacity="0" stroke-width="0" fill="#ffcf25"/><path d="M1359.12 2135.58a6 6 0 0 1 6-6h99.1a6 6 0 0 1 6 6v24.9a6 6 0 0 1-6 6h-99.1a6 6 0 0 1-6-6z" fill="none"/><use xlink:href="#a" transform="matrix(1,0,0,1,1364.1233234042165,2134.583935332883) translate(0 21.58376736111111)"/><path d="M1773.18 2089.18a6 6 0 0 1 6-6h142.56a6 6 0 0 1 6 6v24.9a6 6 0 0 1-6 6h-142.56a6 6 0 0 1-6-6z" fill="none"/><use xlink:href="#b" transform="matrix(1,0,0,1,1778.1784216836177,2088.180252528023) translate(0 21.58376736111111)"/><path d="M1781.43 2188.55a6 6 0 0 1 6-6h148.48a6 6 0 0 1 6 6v24.9a6 6 0 0 1-6 6h-148.47a6 6 0 0 1-6-6z" fill="none"/><use xlink:href="#c" transform="matrix(1,0,0,1,1786.433230875452,2187.5509895833334) translate(0 21.58376736111111)"/><path d="M1246.93 1893.34a6 6 0 0 1 6-6h135.64a6 6 0 0 1 6 6v24.9a6 6 0 0 1-6 6h-135.64a6 6 0 0 1-6-6z" fill="none"/><use xlink:href="#d" transform="matrix(1,0,0,1,1251.9322307387215,1892.3371340825972) translate(0 21.58376736111111)"/><use xlink:href="#e" transform="matrix(1,0,0,1,1251.9322307387215,1892.3371340825972) translate(68.32682291666667 21.58376736111111)"/><path d="M1491.17 1936.27a6 6 0 0 1 6-6h128.66a6 6 0 0 1 6 6v24.9a6 6 0 0 1-6 6h-128.66a6 6 0 0 1-6-6z" fill="none"/><use xlink:href="#d" transform="matrix(1,0,0,1,1496.174412351456,1935.268197679788) translate(0 21.58376736111111)"/><use xlink:href="#f" transform="matrix(1,0,0,1,1496.174412351456,1935.268197679788) translate(68.32682291666667 21.58376736111111)"/><path d="M1734.55 1859.55a6 6 0 0 1 6-6h257.04a6 6 0 0 1 6 6v24.9a6 6 0 0 1-6 6h-257.05a6 6 0 0 1-6-6z" fill="none"/><use xlink:href="#d" transform="matrix(1,0,0,1,1739.5446271963347,1858.5509895833334) translate(0 21.58376736111111)"/><use xlink:href="#g" transform="matrix(1,0,0,1,1739.5446271963347,1858.5509895833334) translate(68.32682291666667 21.58376736111111)"/><use xlink:href="#h" transform="matrix(1,0,0,1,1739.5446271963347,1858.5509895833334) translate(186.2847222222222 21.58376736111111)"/><path d="M1734.55 1936.27a6 6 0 0 1 6-6h177.48a6 6 0 0 1 6 6v24.9a6 6 0 0 1-6 6h-177.48a6 6 0 0 1-6-6z" fill="none"/><use xlink:href="#i" transform="matrix(1,0,0,1,1739.5446271963351,1935.268197679788) translate(0 21.58376736111111)"/><path d="M1416.84 1905.77l33.93-.68 26.5-1.65 22.05-2.3 20.47-3.03 24.2-4.66 65.32-13.8 20.48-3 22.04-2.32 26.5-1.65 16.45-.33" stroke="#3a414a" stroke-width="2" stroke-linejoin="round" fill="none"/><path d="M1416.88 1906.74l-1.05.02v-1.95h1z" stroke="#3a414a" stroke-width=".05" fill="#3a414a"/><path d="M1710.05 1872.06l-14.17 4.92-.2-9.27z" stroke="#3a414a" stroke-width="2" fill="#3a414a"/><path d="M1416.83 1905.83l1.24.06 2.05.27 1.9.45 1.85.62 1.8.8 1.8 1 1.9 1.3 2 1.7 2.32 2.3 2.9 3.55 15.46 22.26 1.36 1.38" stroke="#3a414a" stroke-width="2" stroke-linejoin="round" fill="none"/><path d="M1416.9 1904.86l-.1 1.95-.97-.04v-1.95z" stroke="#3a414a" stroke-width=".05" fill="#3a414a"/><path d="M1466.95 1947.42l-14.93-1.44 3.7-8.5z" stroke="#3a414a" stroke-width="2" fill="#3a414a"/><path d="M1661.07 1948.72h33.7" stroke="#3a414a" stroke-width="2" stroke-linejoin="round" fill="none"/><path d="M1661.1 1949.7h-1.03v-1.96h1.03z" stroke="#3a414a" stroke-width=".05" fill="#3a414a"/><path d="M1710.05 1948.72l-14.27 4.63v-9.27z" stroke="#3a414a" stroke-width="2" fill="#3a414a"/><path d="M1946.3 1948.74h.52l1.5.1 1.47.16 1.44.2 1.43.3 1.43.32 1.4.4 1.42.45 1.4.52 1.4.6 1.42.65 1.42.74 1.43.82 1.44.92 1.46 1.02 1.48 1.12 1.5 1.25 1.54 1.38 1.56 1.54 1.6 1.7 1.6 1.87 1.66 2.1 1.68 2.3 1.7 2.56 1.72 2.85 1.73 3.16 1.73 3.5 1.72 3.84 1.67 4.23 1.6 4.62 1.5 5 1.38 5.34 1.2 5.63 1 5.88.74 6 .5 6.03.26 5.93v5.75l-.23 5.48-.43 5.14-.6 4.78-.75 4.4-.85 4.02-.94 3.66-1 3.33-1.05 3.03-1.1 2.73-1.1 2.48-1.1 2.24-1.12 2.04-1.12 1.86-1.12 1.7-1.12 1.53-1.12 1.42-1.1 1.3-1.12 1.18-1.1 1.1-1.12.98-1.1.92-1.12.84-1.12.78-.2.12" stroke="#3a414a" stroke-width="2" stroke-linejoin="round" fill="none"/><path d="M1946.33 1947.76l-.04 1.95h-1.02v-1.96z" stroke="#3a414a" stroke-width=".05" fill="#3a414a"/><path d="M1960.85 2100.73l12.4-8.43 2.6 8.9z" stroke="#3a414a" stroke-width="2" fill="#3a414a"/><path d="M2025.6 1872.67l1.2 1.07 1.9 1.88 1.9 2.03 1.9 2.2 1.88 2.36 1.87 2.58 1.85 2.78 1.83 3 1.8 3.3 1.77 3.55 1.72 3.9 1.68 4.2 1.6 4.6 1.5 5 1.4 5.4 1.24 5.88 1.08 6.34.86 6.8.6 7.26.33 7.67v8.03l-.33 8.32-.7 8.5-1.1 8.56-1.43 8.52-1.77 8.35-2.07 8.1-2.33 7.72-2.55 7.32-2.7 6.86-2.85 6.4-2.94 5.92-3 5.45-3.02 5-3.04 4.6-3.04 4.2-3.04 3.84-3.02 3.5-3 3.2-2.97 2.9-2.95 2.66-2.93 2.42-2.9 2.2-2.88 2-2.86 1.83-2.86 1.65-2.84 1.5-2.85 1.33-2.85 1.2-2.86 1.07-2.87.93-2.9.8-2.92.7-2.97.56-3 .44-3.07.32-3.13.2-2.23.05" stroke="#3a414a" stroke-width="2" stroke-linejoin="round" fill="none"/><path d="M2026.27 1871.96l-1.3 1.45-.12-.1v-2.6zM1958.77 2102.6h-1.03v-1.95h1.03z" stroke="#3a414a" stroke-width=".05" fill="#3a414a"/><path d="M1414.65 2114.3l-.1-4.48-.3-5.08-.5-4.76-.67-4.5-.8-4.25-.97-4.08-1.1-3.94-1.23-3.8-1.4-3.74-1.54-3.7-1.73-3.66-1.93-3.7-2.17-3.75-2.46-3.88-2.84-4.08-3.37-4.45-4.17-5.03-5.7-6.3-33.6-34.48-4.17-5.03-3.37-4.42-2.85-4.1-2.46-3.87-2.17-3.75-1.93-3.7-1.73-3.66-1.56-3.7-1.4-3.73-1.23-3.82-1.1-3.93-.94-4.08-.8-4.27-.22-1.37" stroke="#3a414a" stroke-width="2" stroke-linejoin="round" fill="none"/><path d="M1415.65 2115.3h-1.95l-.03-1 1.95-.05z" stroke="#3a414a" stroke-width=".05" fill="#3a414a"/><path d="M1321 1934l5.7 13.87-9.25.7z" stroke="#3a414a" stroke-width="2" fill="#3a414a"/><path d="M1845.4 2135.37v14.4" stroke="#3a414a" stroke-width="2" stroke-linejoin="round" fill="none"/><path d="M1846.37 2135.4h-1.95v-1.03h1.95z" stroke="#3a414a" stroke-width=".05" fill="#3a414a"/><path d="M1845.4 2165.03l-4.64-14.27h9.27z" stroke="#3a414a" stroke-width="2" fill="#3a414a"/><defs><path d="M692-1560L212 224H46l480-1784h166" id="j"/><path d="M538 24C308 24 148-78 108-271l171-41c32 123 123 178 257 178 156 0 256-77 256-169 0-77-54-128-164-154l-186-44c-203-48-300-148-300-305 0-192 176-326 414-326 230 0 351 112 402 269l-163 42c-31-80-94-158-238-158-133 0-233 69-233 162 0 83 57 129 188 160l169 40c203 48 298 149 298 302 0 196-179 339-441 339" id="k"/><path d="M158 418v-1536h174v179h20c37-59 106-193 324-193 279 0 474 222 474 576 0 356-194 580-473 580-213 0-288-135-325-197h-14v591H158zm492-555c209 0 317-186 317-421 0-232-105-413-317-413-206 0-314 166-314 413 0 249 111 421 314 421" id="l"/><path d="M158 0v-1118h180V0H158zm91-1301c-68 0-125-53-125-119s57-119 125-119c69 0 126 53 126 119s-57 119-126 119" id="m"/><path d="M158 0v-1118h174v172h12c41-113 157-188 290-188 26 0 70 2 91 3v181c-11-2-60-10-108-10-161 0-279 109-279 260V0H158" id="n"/><path d="M628 24c-324 0-524-230-524-574 0-343 198-582 503-582 237 0 487 146 487 559v75H286c9 234 145 362 343 362 132 0 231-58 273-172l174 48C1024-91 857 24 628 24zM287-650h624c-17-190-120-322-304-322-192 0-309 151-320 322" id="o"/><path d="M798-719v166H144v-166h654" id="p"/><path d="M158 0v-1490h180v865h22l478-493h223L593-638 1096 0H865L456-523 338-412V0H158" id="q"/><g id="a"><use transform="matrix(0.010850694444444444,0,0,0.010850694444444444,0,0)" xlink:href="#j"/><use transform="matrix(0.010850694444444444,0,0,0.010850694444444444,8.0078125,0)" xlink:href="#k"/><use transform="matrix(0.010850694444444444,0,0,0.010850694444444444,19.737413194444443,0)" xlink:href="#l"/><use transform="matrix(0.010850694444444444,0,0,0.010850694444444444,33.34418402777777,0)" xlink:href="#m"/><use transform="matrix(0.010850694444444444,0,0,0.010850694444444444,38.726128472222214,0)" xlink:href="#n"/><use transform="matrix(0.010850694444444444,0,0,0.010850694444444444,46.723090277777764,0)" xlink:href="#o"/><use transform="matrix(0.010850694444444444,0,0,0.010850694444444444,59.678819444444436,0)" xlink:href="#p"/><use transform="matrix(0.010850694444444444,0,0,0.010850694444444444,69.9001736111111,0)" xlink:href="#l"/><use transform="matrix(0.010850694444444444,0,0,0.010850694444444444,83.50694444444443,0)" xlink:href="#q"/><use transform="matrix(0.010850694444444444,0,0,0.010850694444444444,95.70312499999997,0)" xlink:href="#m"/></g><path d="M471 26C259 26 90-98 90-318c0-256 228-303 435-329 202-27 287-16 287-108 0-139-79-219-234-219-161 0-248 86-283 164l-173-57c86-203 278-265 451-265 150 0 419 46 419 395V0H815v-152h-12C765-73 660 26 471 26zm31-159c199 0 310-134 310-271v-155c-30 35-226 55-295 64-131 17-246 59-246 186 0 116 97 176 231 176" id="r"/><path d="M537 14c-226 0-379-139-379-422v-710h180v695c0 172 97 275 253 275 160 0 281-109 281-300v-670h181V0H879v-209C806-46 684 14 537 14" id="s"/><path d="M598-1118v154H368v674c0 100 37 144 132 144 23 0 62-6 92-12L629-6c-37 13-88 20-134 20-193 0-307-107-307-290v-688H20v-154h168v-266h180v266h230" id="t"/><path d="M338-670V0H158v-1490h180v566c73-149 190-208 336-208 226 0 379 139 379 422V0H872v-695c0-172-96-275-252-275-161 0-282 109-282 300" id="u"/><path d="M157-1118h181V80c1 225-123 350-364 338V252c126 9 184-48 183-172v-1198zm91-183c-68 0-125-53-125-119s57-119 125-119c69 0 126 53 126 119s-57 119-126 119" id="v"/><path d="M409 0L70-1118h191c89 329 165 560 243 925 75-353 154-601 240-925h192c85 325 161 564 235 922 77-354 157-598 244-922h191L1267 0h-179c-86-307-176-590-250-913C763-588 675-308 588 0H409" id="w"/><g id="b"><use transform="matrix(0.010850694444444444,0,0,0.010850694444444444,0,0)" xlink:href="#r"/><use transform="matrix(0.010850694444444444,0,0,0.010850694444444444,12.47829861111111,0)" xlink:href="#s"/><use transform="matrix(0.010850694444444444,0,0,0.010850694444444444,25.618489583333332,0)" xlink:href="#t"/><use transform="matrix(0.010850694444444444,0,0,0.010850694444444444,32.88845486111111,0)" xlink:href="#u"/><use transform="matrix(0.010850694444444444,0,0,0.010850694444444444,46.02864583333333,0)" xlink:href="#j"/><use transform="matrix(0.010850694444444444,0,0,0.010850694444444444,54.03645833333333,0)" xlink:href="#k"/><use transform="matrix(0.010850694444444444,0,0,0.010850694444444444,65.76605902777777,0)" xlink:href="#l"/><use transform="matrix(0.010850694444444444,0,0,0.010850694444444444,79.3728298611111,0)" xlink:href="#m"/><use transform="matrix(0.010850694444444444,0,0,0.010850694444444444,84.75477430555554,0)" xlink:href="#n"/><use transform="matrix(0.010850694444444444,0,0,0.010850694444444444,92.75173611111111,0)" xlink:href="#o"/><use transform="matrix(0.010850694444444444,0,0,0.010850694444444444,105.70746527777777,0)" xlink:href="#j"/><use transform="matrix(0.010850694444444444,0,0,0.010850694444444444,113.71527777777777,0)" xlink:href="#v"/><use transform="matrix(0.010850694444444444,0,0,0.010850694444444444,119.09722222222221,0)" xlink:href="#w"/><use transform="matrix(0.010850694444444444,0,0,0.010850694444444444,137.28298611111111,0)" xlink:href="#t"/></g><path d="M481 0L54-1118h197c107 314 236 620 325 951 87-331 217-637 324-951h197L670 0H481" id="x"/><path d="M577 24c-279 0-473-224-473-580 0-354 195-576 474-576 218 0 287 134 324 193h14v-551h180V0H922v-173h-20C865-111 790 24 577 24zm27-161c203 0 314-172 314-421 0-247-108-413-314-413-212 0-317 181-317 413 0 235 108 421 317 421" id="y"/><path d="M158 0v-1118h175l1 205c55-151 181-225 313-225 147 0 245 90 285 228 53-141 190-228 352-228 194 0 352 125 352 384V0h-181v-749c0-161-105-225-225-225-151 0-243 103-243 244V0H807v-767c0-124-93-207-219-207-131 0-250 92-250 270V0H158" id="z"/><path d="M613 24c-304 0-509-231-509-576 0-350 205-580 509-580 305 0 511 230 511 580 0 345-206 576-511 576zm0-161c226 0 329-195 329-415 0-222-103-419-329-419-223 0-326 196-326 419 0 220 103 415 326 415" id="A"/><g id="c"><use transform="matrix(0.010850694444444444,0,0,0.010850694444444444,0,0)" xlink:href="#q"/><use transform="matrix(0.010850694444444444,0,0,0.010850694444444444,12.196180555555555,0)" xlink:href="#x"/><use transform="matrix(0.010850694444444444,0,0,0.010850694444444444,23.426649305555554,0)" xlink:href="#j"/><use transform="matrix(0.010850694444444444,0,0,0.010850694444444444,31.43446180555556,0)" xlink:href="#k"/><use transform="matrix(0.010850694444444444,0,0,0.010850694444444444,43.1640625,0)" xlink:href="#l"/><use transform="matrix(0.010850694444444444,0,0,0.010850694444444444,56.77083333333333,0)" xlink:href="#m"/><use transform="matrix(0.010850694444444444,0,0,0.010850694444444444,62.15277777777778,0)" xlink:href="#n"/><use transform="matrix(0.010850694444444444,0,0,0.010850694444444444,70.14973958333333,0)" xlink:href="#o"/><use transform="matrix(0.010850694444444444,0,0,0.010850694444444444,83.10546875,0)" xlink:href="#j"/><use transform="matrix(0.010850694444444444,0,0,0.010850694444444444,91.11328125,0)" xlink:href="#y"/><use transform="matrix(0.010850694444444444,0,0,0.010850694444444444,104.72005208333333,0)" xlink:href="#o"/><use transform="matrix(0.010850694444444444,0,0,0.010850694444444444,117.67578125,0)" xlink:href="#z"/><use transform="matrix(0.010850694444444444,0,0,0.010850694444444444,137.14192708333334,0)" xlink:href="#A"/></g><path d="M657 26c-323 0-524-166-541-416h195c15 169 171 246 346 246 202 0 356-106 356-265 5-203-294-238-475-293-239-73-380-191-380-389 0-252 224-419 512-419 294 0 499 171 508 396H992c-17-145-151-228-328-228-193 0-321 102-321 242 0 156 175 211 284 241l149 41c160 44 422 134 422 412 0 244-197 432-541 432" id="B"/><path d="M180 0v-1490h510c348 0 508 209 508 474 0 266-160 477-507 477H370V0H180zm190-706h312c236 0 327-133 327-310 0-176-91-307-329-307H370v617" id="C"/><path d="M370-1490V0H180v-1490h190" id="D"/><path d="M180 0v-1490h510c348 0 508 194 508 460 0 198-88 351-276 417L1256 0h-220L726-579c-117 2-238 0-356 1V0H180zm190-747h312c235 0 327-108 327-283 0-177-92-293-329-293H370v576" id="E"/><path d="M180 0v-1490h908v168H370v486h669v168H370v500h727V0H180" id="F"/><g id="d"><use transform="matrix(0.010850694444444444,0,0,0.010850694444444444,0,0)" xlink:href="#B"/><use transform="matrix(0.010850694444444444,0,0,0.010850694444444444,14.2578125,0)" xlink:href="#C"/><use transform="matrix(0.010850694444444444,0,0,0.010850694444444444,28.450520833333332,0)" xlink:href="#D"/><use transform="matrix(0.010850694444444444,0,0,0.010850694444444444,34.41840277777778,0)" xlink:href="#E"/><use transform="matrix(0.010850694444444444,0,0,0.010850694444444444,48.71961805555556,0)" xlink:href="#F"/></g><g id="e"><use transform="matrix(0.010850694444444444,0,0,0.010850694444444444,0,0)" xlink:href="#B"/><use transform="matrix(0.010850694444444444,0,0,0.010850694444444444,14.2578125,0)" xlink:href="#o"/><use transform="matrix(0.010850694444444444,0,0,0.010850694444444444,27.213541666666664,0)" xlink:href="#n"/><use transform="matrix(0.010850694444444444,0,0,0.010850694444444444,35.92664930555555,0)" xlink:href="#x"/><use transform="matrix(0.010850694444444444,0,0,0.010850694444444444,47.98177083333333,0)" xlink:href="#o"/><use transform="matrix(0.010850694444444444,0,0,0.010850694444444444,60.937499999999986,0)" xlink:href="#n"/></g><path d="M52 0l541-1490h220L1361 0h-200l-149-416H398L254 0H52zm404-582h497c-103-290-145-390-251-756-108 377-145 460-246 756" id="G"/><path d="M611 442c-248 0-391-105-460-228l146-94c47 65 117 165 314 165 178 0 307-82 307-266v-224h-17C863-141 792-18 576-18c-268 0-472-195-472-546 0-346 197-568 476-568 216 0 288 133 326 193h17v-179h175V29c0 289-215 413-487 413zm-5-620c203 0 314-146 314-390 0-237-108-403-314-403-213 0-319 180-319 403 0 230 109 390 319 390" id="H"/><path d="M338-670V0H158v-1118h173l1 207c72-158 192-221 342-221 226 0 378 139 378 422V0H872v-695c0-172-96-275-252-275-161 0-282 109-282 300" id="I"/><g id="f"><use transform="matrix(0.010850694444444444,0,0,0.010850694444444444,0,0)" xlink:href="#G"/><use transform="matrix(0.010850694444444444,0,0,0.010850694444444444,15.33203125,0)" xlink:href="#H"/><use transform="matrix(0.010850694444444444,0,0,0.010850694444444444,28.96050347222222,0)" xlink:href="#o"/><use transform="matrix(0.010850694444444444,0,0,0.010850694444444444,41.916232638888886,0)" xlink:href="#I"/><use transform="matrix(0.010850694444444444,0,0,0.010850694444444444,55.045572916666664,0)" xlink:href="#t"/></g><path d="M180 0v-1490h901v168H370v510h643v168H370V0H180" id="J"/><g id="g"><use transform="matrix(0.010850694444444444,0,0,0.010850694444444444,0,0)" xlink:href="#J"/><use transform="matrix(0.010850694444444444,0,0,0.010850694444444444,12.239583333333332,0)" xlink:href="#o"/><use transform="matrix(0.010850694444444444,0,0,0.010850694444444444,25.1953125,0)" xlink:href="#y"/><use transform="matrix(0.010850694444444444,0,0,0.010850694444444444,38.80208333333333,0)" xlink:href="#o"/><use transform="matrix(0.010850694444444444,0,0,0.010850694444444444,51.757812499999986,0)" xlink:href="#n"/><use transform="matrix(0.010850694444444444,0,0,0.010850694444444444,60.12369791666666,0)" xlink:href="#r"/><use transform="matrix(0.010850694444444444,0,0,0.010850694444444444,72.60199652777777,0)" xlink:href="#t"/><use transform="matrix(0.010850694444444444,0,0,0.010850694444444444,79.87196180555554,0)" xlink:href="#m"/><use transform="matrix(0.010850694444444444,0,0,0.010850694444444444,85.25390624999999,0)" xlink:href="#A"/><use transform="matrix(0.010850694444444444,0,0,0.010850694444444444,98.57855902777776,0)" xlink:href="#I"/></g><path d="M180 0v-1490h528c311 0 458 177 458 395 0 191-114 278-244 313v14c139 9 302 137 302 371 0 225-148 397-499 397H180zm190-168h350c232 0 321-102 321-231 0-149-120-277-311-277H370v508zm0-668h328c160 0 286-101 286-255 0-129-87-231-280-231H370v486" id="K"/><path d="M338-1490V0H158v-1490h180" id="L"/><g id="h"><use transform="matrix(0.010850694444444444,0,0,0.010850694444444444,0,0)" xlink:href="#K"/><use transform="matrix(0.010850694444444444,0,0,0.010850694444444444,14.539930555555555,0)" xlink:href="#s"/><use transform="matrix(0.010850694444444444,0,0,0.010850694444444444,27.68012152777778,0)" xlink:href="#I"/><use transform="matrix(0.010850694444444444,0,0,0.010850694444444444,40.80946180555556,0)" xlink:href="#y"/><use transform="matrix(0.010850694444444444,0,0,0.010850694444444444,54.416232638888886,0)" xlink:href="#L"/><use transform="matrix(0.010850694444444444,0,0,0.010850694444444444,59.79817708333333,0)" xlink:href="#o"/></g><path d="M613 24c-304 0-509-231-509-576 0-350 205-580 509-580 216 0 392 114 453 309l-173 49c-33-115-133-197-280-197-223 0-326 196-326 419 0 220 103 415 326 415 150 0 252-85 285-206l172 49C1010-95 832 24 613 24" id="M"/><g id="i"><use transform="matrix(0.010850694444444444,0,0,0.010850694444444444,0,0)" xlink:href="#x"/><use transform="matrix(0.010850694444444444,0,0,0.010850694444444444,12.38064236111111,0)" xlink:href="#r"/><use transform="matrix(0.010850694444444444,0,0,0.010850694444444444,24.85894097222222,0)" xlink:href="#s"/><use transform="matrix(0.010850694444444444,0,0,0.010850694444444444,37.99913194444444,0)" xlink:href="#L"/><use transform="matrix(0.010850694444444444,0,0,0.010850694444444444,43.70659722222222,0)" xlink:href="#t"/><use transform="matrix(0.010850694444444444,0,0,0.010850694444444444,50.54253472222222,0)" xlink:href="#p"/><use transform="matrix(0.010850694444444444,0,0,0.010850694444444444,60.763888888888886,0)" xlink:href="#k"/><use transform="matrix(0.010850694444444444,0,0,0.010850694444444444,72.49348958333333,0)" xlink:href="#l"/><use transform="matrix(0.010850694444444444,0,0,0.010850694444444444,86.10026041666666,0)" xlink:href="#m"/><use transform="matrix(0.010850694444444444,0,0,0.010850694444444444,91.48220486111111,0)" xlink:href="#n"/><use transform="matrix(0.010850694444444444,0,0,0.010850694444444444,99.47916666666666,0)" xlink:href="#o"/><use transform="matrix(0.010850694444444444,0,0,0.010850694444444444,112.43489583333333,0)" xlink:href="#p"/><use transform="matrix(0.010850694444444444,0,0,0.010850694444444444,122.65625,0)" xlink:href="#M"/><use transform="matrix(0.010850694444444444,0,0,0.010850694444444444,135.3515625,0)" xlink:href="#L"/><use transform="matrix(0.010850694444444444,0,0,0.010850694444444444,140.73350694444446,0)" xlink:href="#m"/><use transform="matrix(0.010850694444444444,0,0,0.010850694444444444,146.1154513888889,0)" xlink:href="#o"/><use transform="matrix(0.010850694444444444,0,0,0.010850694444444444,159.07118055555557,0)" xlink:href="#I"/><use transform="matrix(0.010850694444444444,0,0,0.010850694444444444,172.20052083333334,0)" xlink:href="#t"/></g></defs></g></svg>